####
#
# OBJ File Generated by Meshlab
#
####
# Object AmberLabStaircase.obj
#
# Vertices: 132
# Faces: 44
#
####
vn -1.570796 0.000000 0.000000
v -0.812800 0.609600 0.190500
vn -1.415800 0.000000 0.000000
v -0.812800 0.609600 0.000000
vn -0.154996 0.000000 0.000000
v -0.812800 -0.609600 0.190500
vn -1.415800 0.000000 0.000000
v -0.812800 -0.609600 0.190500
vn -0.154996 0.000000 0.000000
v -0.812800 0.609600 0.000000
vn -1.570796 0.000000 0.000000
v -0.812800 -0.609600 0.000000
vn 0.000000 0.000000 1.570796
v -0.546100 0.609600 0.190500
vn 0.000000 0.000000 1.355439
v -0.812800 0.609600 0.190500
vn 0.000000 0.000000 0.215358
v -0.546100 -0.609600 0.190500
vn 0.000000 0.000000 1.355439
v -0.546100 -0.609600 0.190500
vn 0.000000 0.000000 0.215358
v -0.812800 0.609600 0.190500
vn 0.000000 0.000000 1.570796
v -0.812800 -0.609600 0.190500
vn -1.570796 0.000000 0.000000
v -0.546100 0.609600 0.381000
vn -1.415800 0.000000 0.000000
v -0.546100 0.609600 0.190500
vn -0.154996 0.000000 0.000000
v -0.546100 -0.609600 0.381000
vn -1.415800 0.000000 0.000000
v -0.546100 -0.609600 0.381000
vn -0.154996 0.000000 0.000000
v -0.546100 0.609600 0.190500
vn -1.570796 0.000000 0.000000
v -0.546100 -0.609600 0.190500
vn 0.000000 0.000000 1.570796
v -0.279400 0.609600 0.381000
vn 0.000000 0.000000 1.355439
v -0.546100 0.609600 0.381000
vn 0.000000 0.000000 0.215358
v -0.279400 -0.609600 0.381000
vn 0.000000 0.000000 1.355439
v -0.279400 -0.609600 0.381000
vn 0.000000 0.000000 0.215358
v -0.546100 0.609600 0.381000
vn 0.000000 0.000000 1.570796
v -0.546100 -0.609600 0.381000
vn -1.570796 0.000000 0.000000
v -0.279400 0.609600 0.571500
vn -1.415800 0.000000 0.000000
v -0.279400 0.609600 0.381000
vn -0.154996 0.000000 0.000000
v -0.279400 -0.609600 0.571500
vn -1.415800 0.000000 0.000000
v -0.279400 -0.609600 0.571500
vn -0.154996 0.000000 0.000000
v -0.279400 0.609600 0.381000
vn -1.570796 0.000000 0.000000
v -0.279400 -0.609600 0.381000
vn 0.000000 0.000000 1.570796
v 0.279400 0.609600 0.571500
vn 0.000000 0.000000 1.141034
v -0.279400 0.609600 0.571500
vn 0.000000 0.000000 0.429762
v 0.279400 -0.609600 0.571500
vn 0.000000 0.000000 1.141034
v 0.279400 -0.609600 0.571500
vn 0.000000 0.000000 0.429762
v -0.279400 0.609600 0.571500
vn 0.000000 0.000000 1.570796
v -0.279400 -0.609600 0.571500
vn 1.570796 0.000000 0.000000
v 0.279400 0.609600 0.381000
vn 1.415800 0.000000 0.000000
v 0.279400 0.609600 0.571500
vn 0.154996 0.000000 0.000000
v 0.279400 -0.609600 0.381000
vn 1.415800 0.000000 0.000000
v 0.279400 -0.609600 0.381000
vn 0.154996 0.000000 0.000000
v 0.279400 0.609600 0.571500
vn 1.570796 0.000000 0.000000
v 0.279400 -0.609600 0.571500
vn 0.000000 0.000000 1.570796
v 0.546100 0.609600 0.381000
vn 0.000000 0.000000 1.355439
v 0.279400 0.609600 0.381000
vn 0.000000 0.000000 0.215358
v 0.546100 -0.609600 0.381000
vn 0.000000 0.000000 1.355439
v 0.546100 -0.609600 0.381000
vn 0.000000 0.000000 0.215358
v 0.279400 0.609600 0.381000
vn 0.000000 0.000000 1.570796
v 0.279400 -0.609600 0.381000
vn 1.570796 0.000000 0.000000
v 0.546100 0.609600 0.190500
vn 1.415800 0.000000 0.000000
v 0.546100 0.609600 0.381000
vn 0.154996 0.000000 0.000000
v 0.546100 -0.609600 0.190500
vn 1.415800 0.000000 0.000000
v 0.546100 -0.609600 0.190500
vn 0.154996 0.000000 0.000000
v 0.546100 0.609600 0.381000
vn 1.570796 0.000000 0.000000
v 0.546100 -0.609600 0.381000
vn 0.000000 0.000000 1.570796
v 0.812800 0.609600 0.190500
vn 0.000000 0.000000 1.355439
v 0.546100 0.609600 0.190500
vn 0.000000 0.000000 0.215358
v 0.812800 -0.609600 0.190500
vn 0.000000 0.000000 1.355439
v 0.812800 -0.609600 0.190500
vn 0.000000 0.000000 0.215358
v 0.546100 0.609600 0.190500
vn 0.000000 0.000000 1.570796
v 0.546100 -0.609600 0.190500
vn 1.570796 0.000000 0.000000
v 0.812800 0.609600 -0.000000
vn 1.415800 0.000000 0.000000
v 0.812800 0.609600 0.190500
vn 0.154996 0.000000 0.000000
v 0.812800 -0.609600 -0.000000
vn 1.415800 0.000000 0.000000
v 0.812800 -0.609600 -0.000000
vn 0.154996 0.000000 0.000000
v 0.812800 0.609600 0.190500
vn 1.570796 0.000000 0.000000
v 0.812800 -0.609600 0.190500
vn -0.000000 0.000000 -1.570796
v -0.812800 0.609600 0.000000
vn -0.000000 0.000000 -0.643501
v 0.812800 0.609600 -0.000000
vn -0.000000 0.000000 -0.927295
v -0.812800 -0.609600 0.000000
vn -0.000000 0.000000 -0.643501
v -0.812800 -0.609600 0.000000
vn -0.000000 0.000000 -0.927295
v 0.812800 0.609600 -0.000000
vn -0.000000 0.000000 -1.570796
v 0.812800 -0.609600 -0.000000
vn 0.000000 0.620250 0.000000
v 0.546100 0.609600 0.190500
vn 0.000000 1.570796 0.000000
v 0.812800 0.609600 0.190500
vn 0.000000 0.950547 0.000000
v 0.812800 0.609600 -0.000000
vn 0.000000 0.139279 0.000000
v 0.812800 0.609600 -0.000000
vn 0.000000 0.620250 0.000000
v -0.812800 0.609600 0.000000
vn 0.000000 2.382064 0.000000
v -0.546100 0.609600 0.190500
vn 0.000000 0.620250 0.000000
v -0.546100 0.609600 0.190500
vn 0.000000 0.950547 0.000000
v -0.812800 0.609600 0.000000
vn 0.000000 1.570796 0.000000
v -0.812800 0.609600 0.190500
vn 0.000000 1.570796 0.000000
v -0.279400 0.609600 0.571500
vn 0.000000 0.328553 0.000000
v 0.279400 0.609600 0.571500
vn 0.000000 1.242243 0.000000
v -0.279400 0.609600 0.381000
vn 0.000000 0.328553 0.000000
v -0.279400 0.609600 0.381000
vn 0.000000 1.242243 0.000000
v 0.279400 0.609600 0.571500
vn 0.000000 1.570796 0.000000
v 0.279400 0.609600 0.381000
vn 0.000000 1.710076 0.000000
v -0.546100 0.609600 0.190500
vn 0.000000 1.297441 0.000000
v -0.546100 0.609600 0.381000
vn 0.000000 0.134076 0.000000
v 0.812800 0.609600 -0.000000
vn 0.000000 0.062284 0.000000
v 0.812800 0.609600 -0.000000
vn 0.000000 0.273355 0.000000
v -0.546100 0.609600 0.381000
vn 0.000000 2.805954 0.000000
v -0.279400 0.609600 0.381000
vn 0.000000 0.284611 0.000000
v 0.812800 0.609600 -0.000000
vn 0.000000 0.108840 0.000000
v -0.279400 0.609600 0.381000
vn 0.000000 2.748142 0.000000
v 0.546100 0.609600 0.190500
vn 0.000000 0.393451 0.000000
v 0.546100 0.609600 0.190500
vn 0.000000 0.226799 0.000000
v -0.279400 0.609600 0.381000
vn 0.000000 2.521343 0.000000
v 0.279400 0.609600 0.381000
vn 0.000000 0.950547 0.000000
v 0.546100 0.609600 0.190500
vn 0.000000 0.620250 0.000000
v 0.279400 0.609600 0.381000
vn 0.000000 1.570796 0.000000
v 0.546100 0.609600 0.381000
vn 0.000000 -0.139280 0.000000
v -0.812800 -0.609600 0.000000
vn 0.000000 -0.620250 0.000000
v 0.812800 -0.609600 -0.000000
vn 0.000000 -2.382064 0.000000
v 0.546100 -0.609600 0.190500
vn 0.000000 -0.620250 0.000000
v 0.546100 -0.609600 0.190500
vn 0.000000 -0.950547 0.000000
v 0.812800 -0.609600 -0.000000
vn 0.000000 -1.570796 0.000000
v 0.812800 -0.609600 0.190500
vn 0.000000 -0.620250 0.000000
v -0.279400 -0.609600 0.381000
vn 0.000000 -1.570796 0.000000
v -0.546100 -0.609600 0.381000
vn 0.000000 -0.950547 0.000000
v -0.546100 -0.609600 0.190500
vn 0.000000 -0.950547 0.000000
v 0.546100 -0.609600 0.190500
vn 0.000000 -1.570796 0.000000
v 0.546100 -0.609600 0.381000
vn 0.000000 -0.620250 0.000000
v 0.279400 -0.609600 0.381000
vn 0.000000 -1.570796 0.000000
v -0.812800 -0.609600 0.190500
vn 0.000000 -0.950547 0.000000
v -0.812800 -0.609600 0.000000
vn 0.000000 -0.620250 0.000000
v -0.546100 -0.609600 0.190500
vn 0.000000 -2.521343 0.000000
v -0.546100 -0.609600 0.190500
vn 0.000000 -0.480970 0.000000
v -0.812800 -0.609600 0.000000
vn 0.000000 -0.139280 0.000000
v 0.546100 -0.609600 0.190500
vn 0.000000 -0.620250 0.000000
v -0.546100 -0.609600 0.190500
vn 0.000000 -0.226799 0.000000
v 0.546100 -0.609600 0.190500
vn 0.000000 -2.294544 0.000000
v -0.279400 -0.609600 0.381000
vn 0.000000 -0.226799 0.000000
v -0.279400 -0.609600 0.381000
vn 0.000000 -0.393451 0.000000
v 0.546100 -0.609600 0.190500
vn 0.000000 -2.521343 0.000000
v 0.279400 -0.609600 0.381000
vn 0.000000 -1.570796 0.000000
v -0.279400 -0.609600 0.381000
vn 0.000000 -0.328553 0.000000
v 0.279400 -0.609600 0.381000
vn 0.000000 -1.242243 0.000000
v -0.279400 -0.609600 0.571500
vn 0.000000 -0.328553 0.000000
v -0.279400 -0.609600 0.571500
vn 0.000000 -1.242243 0.000000
v 0.279400 -0.609600 0.381000
vn 0.000000 -1.570796 0.000000
v 0.279400 -0.609600 0.571500
# 132 vertices, 0 vertices normals

f 1//1 2//2 3//3
f 4//4 5//5 6//6
f 7//7 8//8 9//9
f 10//10 11//11 12//12
f 13//13 14//14 15//15
f 16//16 17//17 18//18
f 19//19 20//20 21//21
f 22//22 23//23 24//24
f 25//25 26//26 27//27
f 28//28 29//29 30//30
f 31//31 32//32 33//33
f 34//34 35//35 36//36
f 37//37 38//38 39//39
f 40//40 41//41 42//42
f 43//43 44//44 45//45
f 46//46 47//47 48//48
f 49//49 50//50 51//51
f 52//52 53//53 54//54
f 55//55 56//56 57//57
f 58//58 59//59 60//60
f 61//61 62//62 63//63
f 64//64 65//65 66//66
f 67//67 68//68 69//69
f 70//70 71//71 72//72
f 73//73 74//74 75//75
f 76//76 77//77 78//78
f 79//79 80//80 81//81
f 82//82 83//83 84//84
f 85//85 86//86 87//87
f 88//88 89//89 90//90
f 91//91 92//92 93//93
f 94//94 95//95 96//96
f 97//97 98//98 99//99
f 100//100 101//101 102//102
f 103//103 104//104 105//105
f 106//106 107//107 108//108
f 109//109 110//110 111//111
f 112//112 113//113 114//114
f 115//115 116//116 117//117
f 118//118 119//119 120//120
f 121//121 122//122 123//123
f 124//124 125//125 126//126
f 127//127 128//128 129//129
f 130//130 131//131 132//132
# 44 faces, 0 coords texture

# End of File
